<svg width="88" height="93" viewBox="0 0 88 93" fill="none" xmlns="http://www.w3.org/2000/svg">
<g filter="url(#filter0_d)">
<ellipse cx="44" cy="40.5" rx="40" ry="40.5" fill="#AFB9D2"/>
</g>
<path d="M64.411 41.8184C65.3885 40.8434 65.3905 39.2605 64.4154 38.2829L48.5251 22.3526C47.55 21.375 45.9671 21.373 44.9895 22.348C44.012 23.3231 44.0101 24.906 44.9852 25.8835L59.1099 40.0438L44.9503 54.1678C43.9728 55.1428 43.9708 56.7258 44.946 57.7033C45.9211 58.6809 47.504 58.6829 48.4815 57.7079L64.411 41.8184ZM24.9969 42.5L62.6423 42.5484L62.6485 37.5484L25.0031 37.5L24.9969 42.5Z" fill="black"/>
<defs>
<filter id="filter0_d" x="0" y="0" width="88" height="93" filterUnits="userSpaceOnUse" color-interpolation-filters="sRGB">
<feFlood flood-opacity="0" result="BackgroundImageFix"/>
<feColorMatrix in="SourceAlpha" type="matrix" values="0 0 0 0 0 0 0 0 0 0 0 0 0 0 0 0 0 0 127 0"/>
<feOffset dy="8"/>
<feGaussianBlur stdDeviation="2"/>
<feColorMatrix type="matrix" values="0 0 0 0 0 0 0 0 0 0 0 0 0 0 0 0 0 0 0.25 0"/>
<feBlend mode="normal" in2="BackgroundImageFix" result="effect1_dropShadow"/>
<feBlend mode="normal" in="SourceGraphic" in2="effect1_dropShadow" result="shape"/>
</filter>
</defs>
</svg>
