<svg width="335" height="317" viewBox="0 0 335 317" fill="none" xmlns="http://www.w3.org/2000/svg">
<g clip-path="url(#clip0)">
<path d="M301.554 291.324H276.761V317H301.554V291.324Z" fill="url(#paint0_linear)"/>
<path d="M277.339 316.062H300.981V291.32H277.339V316.062Z" fill="#707487"/>
<path d="M58.8114 291.324H34.0186V317H58.8114V291.324Z" fill="url(#paint1_linear)"/>
<path d="M58.2385 291.324H34.5964V316.066H58.2385V291.324Z" fill="#707487"/>
<path d="M327.661 0H7.33908C3.28582 0 0 2.87724 0 6.42649V288.431C0 291.98 3.28582 294.858 7.33908 294.858H327.661C331.714 294.858 335 291.98 335 288.431V6.42649C335 2.87724 331.714 0 327.661 0Z" fill="url(#paint2_linear)"/>
<path d="M325.927 1.51364H9.64551C5.59225 1.51364 2.30643 4.39088 2.30643 7.94014V284.893C2.30643 288.443 5.59225 291.32 9.64551 291.32H325.927C329.981 291.32 333.267 288.443 333.267 284.893V7.94014C333.267 4.39088 329.981 1.51364 325.927 1.51364Z" fill="#959CB3"/>
<path d="M279.359 48.216H55.6407V246.136H279.359V48.216Z" fill="url(#paint3_linear)"/>
<path d="M277.626 50.2356H57.3693V243.104H277.626V50.2356Z" fill="#AFB9D2"/>
<path d="M167.5 183.025C190.428 183.025 209.016 166.749 209.016 146.672C209.016 126.595 190.428 110.319 167.5 110.319C144.572 110.319 125.984 126.595 125.984 146.672C125.984 166.749 144.572 183.025 167.5 183.025Z" fill="url(#paint4_linear)"/>
<path d="M167.5 181.512C189.474 181.512 207.287 165.913 207.287 146.672C207.287 127.431 189.474 111.832 167.5 111.832C145.526 111.832 127.713 127.431 127.713 146.672C127.713 165.913 145.526 181.512 167.5 181.512Z" fill="#707487"/>
<path d="M149.34 216.092H137.23V227.198H149.34V216.092Z" fill="url(#paint5_linear)"/>
<path d="M165.485 216.092H153.375V227.198H165.485V216.092Z" fill="url(#paint6_linear)"/>
<path d="M181.625 216.092H169.515V227.198H181.625V216.092Z" fill="url(#paint7_linear)"/>
<path d="M197.77 216.092H185.66V227.198H197.77V216.092Z" fill="url(#paint8_linear)"/>
<path d="M149.049 216.598H137.516V226.696H149.049V216.598Z" fill="#5B5D6E"/>
<path opacity="0.7" d="M165.194 216.598H153.661V226.696H165.194V216.598Z" fill="#959CB3"/>
<path opacity="0.5" d="M181.339 216.598H169.806V226.696H181.339V216.598Z" fill="#AAB0BE"/>
<path opacity="0.3" d="M197.484 216.598H185.951V226.696H197.484V216.598Z" fill="#E5E5E5"/>
<path d="M186.044 125.682L184.154 124.524L179.526 130.312L181.415 131.471L186.044 125.682Z" fill="black"/>
<path d="M191.47 162.908L192.793 161.253L186.183 157.2L184.86 158.854L191.47 162.908Z" fill="black"/>
<path d="M148.954 167.66L150.843 168.818L155.472 163.029L153.583 161.871L148.954 167.66Z" fill="black"/>
<path d="M143.532 130.434L142.209 132.089L148.82 136.142L150.142 134.487L143.532 130.434Z" fill="black"/>
<path d="M167.5 168.633C181.351 168.633 192.579 158.801 192.579 146.672C192.579 134.543 181.351 124.711 167.5 124.711C153.649 124.711 142.421 134.543 142.421 146.672C142.421 158.801 153.649 168.633 167.5 168.633Z" fill="url(#paint9_linear)"/>
<path d="M167.5 167.374C180.557 167.374 191.142 158.106 191.142 146.672C191.142 135.238 180.557 125.97 167.5 125.97C154.443 125.97 143.858 135.238 143.858 146.672C143.858 158.106 154.443 167.374 167.5 167.374Z" fill="#5B5D6E"/>
<path opacity="0.2" d="M148.184 149.448C148.18 145.818 149.265 142.251 151.333 139.104C153.4 135.958 156.376 133.343 159.962 131.521C163.548 129.7 167.618 128.736 171.764 128.728C175.909 128.719 179.985 129.665 183.581 131.471C181.168 129.438 178.29 127.876 175.136 126.891C171.983 125.905 168.626 125.517 165.289 125.753C161.951 125.989 158.709 126.843 155.777 128.259C152.845 129.675 150.289 131.62 148.28 133.965C146.271 136.311 144.854 139.004 144.123 141.865C143.392 144.726 143.364 147.691 144.04 150.562C144.716 153.434 146.08 156.147 148.044 158.522C150.008 160.897 152.525 162.88 155.43 164.338C153.138 162.412 151.315 160.1 150.07 157.541C148.825 154.983 148.183 152.23 148.184 149.448Z" fill="white"/>
<path d="M66.8864 128.244H48.435V87.9037C48.4363 87.4881 48.6258 87.0899 48.9618 86.7964C49.2979 86.503 49.7532 86.3382 50.2278 86.3382H65.0986C65.574 86.3382 66.03 86.5036 66.3663 86.798C66.7025 87.0924 66.8914 87.4917 66.8914 87.908L66.8864 128.244Z" fill="url(#paint10_linear)"/>
<path d="M65.0047 207.512H50.3167C49.8176 207.512 49.339 207.338 48.9861 207.029C48.6332 206.72 48.435 206.301 48.435 205.864V165.605H66.8864V205.855C66.8877 206.073 66.84 206.288 66.746 206.489C66.652 206.69 66.5136 206.872 66.3388 207.026C66.1639 207.18 65.956 207.302 65.7271 207.386C65.4982 207.469 65.2527 207.512 65.0047 207.512Z" fill="url(#paint11_linear)"/>
<path d="M50.5735 86.8398H64.7429C65.1582 86.8398 65.5564 86.9843 65.85 87.2414C66.1436 87.4985 66.3086 87.8472 66.3086 88.2108V127.232H49.0227V88.2237C49.0207 88.0437 49.0593 87.8651 49.1362 87.6981C49.213 87.5311 49.3267 87.379 49.4707 87.2505C49.6147 87.122 49.7863 87.0196 49.9755 86.9491C50.1647 86.8787 50.3679 86.8415 50.5735 86.8398Z" fill="#707487"/>
<path d="M49.0079 166.111H66.2937V206.041C66.2937 206.163 66.2386 206.28 66.1404 206.365C66.0422 206.451 65.9091 206.5 65.7702 206.5H49.5363C49.3975 206.5 49.2643 206.451 49.1661 206.365C49.068 206.28 49.0128 206.163 49.0128 206.041V166.111H49.0079Z" fill="#707487"/>
</g>
<defs>
<linearGradient id="paint0_linear" x1="289.158" y1="317" x2="289.158" y2="291.324" gradientUnits="userSpaceOnUse">
<stop stop-color="#808080" stop-opacity="0.25"/>
<stop offset="0.54" stop-color="#808080" stop-opacity="0.12"/>
<stop offset="1" stop-color="#808080" stop-opacity="0.1"/>
</linearGradient>
<linearGradient id="paint1_linear" x1="2364.05" y1="291.324" x2="2364.05" y2="17587.3" gradientUnits="userSpaceOnUse">
<stop stop-color="#808080" stop-opacity="0.25"/>
<stop offset="0.54" stop-color="#808080" stop-opacity="0.12"/>
<stop offset="1" stop-color="#808080" stop-opacity="0.1"/>
</linearGradient>
<linearGradient id="paint2_linear" x1="113615" y1="201034" x2="113615" y2="0" gradientUnits="userSpaceOnUse">
<stop stop-color="#959CB3"/>
<stop offset="0.54" stop-color="#808080" stop-opacity="0.12"/>
<stop offset="1" stop-color="#808080" stop-opacity="0.1"/>
</linearGradient>
<linearGradient id="paint3_linear" x1="75929.8" y1="112692" x2="75929.8" y2="22114.3" gradientUnits="userSpaceOnUse">
<stop stop-color="#808080" stop-opacity="0.25"/>
<stop offset="0.54" stop-color="#808080" stop-opacity="0.12"/>
<stop offset="1" stop-color="#808080" stop-opacity="0.1"/>
</linearGradient>
<linearGradient id="paint4_linear" x1="28286.1" y1="30880.5" x2="28286.1" y2="18657.1" gradientUnits="userSpaceOnUse">
<stop stop-color="#808080" stop-opacity="0.25"/>
<stop offset="0.54" stop-color="#808080" stop-opacity="0.12"/>
<stop offset="1" stop-color="#808080" stop-opacity="0.1"/>
</linearGradient>
<linearGradient id="paint5_linear" x1="3650.46" y1="6050.63" x2="3650.46" y2="5765.32" gradientUnits="userSpaceOnUse">
<stop stop-color="#808080" stop-opacity="0.25"/>
<stop offset="0.54" stop-color="#808080" stop-opacity="0.12"/>
<stop offset="1" stop-color="#808080" stop-opacity="0.1"/>
</linearGradient>
<linearGradient id="paint6_linear" x1="4062.48" y1="6050.63" x2="4062.48" y2="5765.32" gradientUnits="userSpaceOnUse">
<stop stop-color="#808080" stop-opacity="0.25"/>
<stop offset="0.54" stop-color="#808080" stop-opacity="0.12"/>
<stop offset="1" stop-color="#808080" stop-opacity="0.1"/>
</linearGradient>
<linearGradient id="paint7_linear" x1="4474.49" y1="6050.63" x2="4474.49" y2="5765.32" gradientUnits="userSpaceOnUse">
<stop stop-color="#808080" stop-opacity="0.25"/>
<stop offset="0.54" stop-color="#808080" stop-opacity="0.12"/>
<stop offset="1" stop-color="#808080" stop-opacity="0.1"/>
</linearGradient>
<linearGradient id="paint8_linear" x1="4886.5" y1="6050.63" x2="4886.5" y2="5765.32" gradientUnits="userSpaceOnUse">
<stop stop-color="#808080" stop-opacity="0.25"/>
<stop offset="0.54" stop-color="#808080" stop-opacity="0.12"/>
<stop offset="1" stop-color="#808080" stop-opacity="0.1"/>
</linearGradient>
<linearGradient id="paint9_linear" x1="17153.7" y1="17251" x2="17153.7" y2="12789.9" gradientUnits="userSpaceOnUse">
<stop stop-color="#808080" stop-opacity="0.25"/>
<stop offset="0.54" stop-color="#808080" stop-opacity="0.12"/>
<stop offset="1" stop-color="#808080" stop-opacity="0.1"/>
</linearGradient>
<linearGradient id="paint10_linear" x1="7017.56" y1="16033.4" x2="7017.56" y2="11972.6" gradientUnits="userSpaceOnUse">
<stop stop-color="#808080" stop-opacity="0.25"/>
<stop offset="0.54" stop-color="#808080" stop-opacity="0.12"/>
<stop offset="1" stop-color="#808080" stop-opacity="0.1"/>
</linearGradient>
<linearGradient id="paint11_linear" x1="7015.7" y1="23793.6" x2="7015.7" y2="19732.9" gradientUnits="userSpaceOnUse">
<stop stop-color="#808080" stop-opacity="0.25"/>
<stop offset="0.54" stop-color="#808080" stop-opacity="0.12"/>
<stop offset="1" stop-color="#808080" stop-opacity="0.1"/>
</linearGradient>
<clipPath id="clip0">
<rect width="335" height="317" fill="white"/>
</clipPath>
</defs>
</svg>
