<svg width="35" height="31" viewBox="0 0 35 31" fill="none" xmlns="http://www.w3.org/2000/svg">
<path d="M17.036 8.04221L5.83379 18.5509V29.8927C5.83379 30.1864 5.93622 30.468 6.11853 30.6757C6.30084 30.8833 6.54811 31 6.80594 31L13.6146 30.9799C13.8716 30.9785 14.1176 30.8612 14.2989 30.6537C14.4802 30.4462 14.5819 30.1654 14.5819 29.8727V23.2491C14.5819 22.9555 14.6843 22.6738 14.8666 22.4662C15.049 22.2585 15.2962 22.1419 15.5541 22.1419H19.4426C19.7005 22.1419 19.9477 22.2585 20.1301 22.4662C20.3124 22.6738 20.4148 22.9555 20.4148 23.2491V29.8678C20.4144 30.0135 20.4392 30.1579 20.4879 30.2926C20.5366 30.4274 20.6081 30.5498 20.6984 30.653C20.7888 30.7562 20.8961 30.8381 21.0142 30.8939C21.1324 30.9498 21.259 30.9785 21.3869 30.9785L28.1932 31C28.451 31 28.6983 30.8833 28.8806 30.6757C29.0629 30.468 29.1653 30.1864 29.1653 29.8927V18.5433L17.9656 8.04221C17.8339 7.92133 17.6699 7.85541 17.5008 7.85541C17.3317 7.85541 17.1676 7.92133 17.036 8.04221V8.04221ZM34.7309 15.1848L29.6514 10.4159V0.83045C29.6514 0.610201 29.5746 0.398973 29.4379 0.243233C29.3011 0.0874937 29.1157 0 28.9223 0H25.5198C25.3264 0 25.141 0.0874937 25.0042 0.243233C24.8675 0.398973 24.7907 0.610201 24.7907 0.83045V5.85536L19.3509 0.757786C18.8289 0.268498 18.1738 0.000978094 17.4977 0.000978094C16.8217 0.000978094 16.1666 0.268498 15.6446 0.757786L0.264606 15.1848C0.190776 15.2543 0.129693 15.3397 0.0848477 15.4361C0.0400026 15.5325 0.0122738 15.638 0.00324585 15.7466C-0.00578212 15.8552 0.00406762 15.9648 0.0322323 16.0691C0.0603969 16.1733 0.106325 16.2703 0.167391 16.3543L1.71675 18.4997C1.77765 18.584 1.85256 18.6538 1.93718 18.7052C2.02181 18.7565 2.11449 18.7883 2.20993 18.7988C2.30536 18.8093 2.40167 18.7982 2.49335 18.7662C2.58503 18.7343 2.67027 18.682 2.74419 18.6125L17.036 5.20484C17.1676 5.08396 17.3317 5.01804 17.5008 5.01804C17.6699 5.01804 17.8339 5.08396 17.9656 5.20484L32.258 18.6125C32.3318 18.682 32.4169 18.7343 32.5084 18.7664C32.6 18.7985 32.6962 18.8097 32.7915 18.7994C32.8869 18.7891 32.9795 18.7576 33.0642 18.7065C33.1488 18.6554 33.2238 18.5858 33.2848 18.5017L34.8342 16.3564C34.8952 16.2719 34.9409 16.1744 34.9687 16.0697C34.9966 15.965 35.006 15.855 34.9964 15.7461C34.9868 15.6373 34.9584 15.5316 34.9128 15.4353C34.8672 15.3389 34.8054 15.2538 34.7309 15.1848V15.1848Z" fill="#F9F1F1"/>
</svg>
